<?xml version="1.0" encoding="UTF-8"?>
<svg version="1.1" xmlns="http://www.w3.org/2000/svg" width="1024" height="1024">
<path d="M0 0 C1.30352945 1.38914262 2.54920394 2.83365076 3.75 4.3125 C8.08569536 9.53886146 12.66440932 11.78207535 19 14 C19.65613281 14.23332031 20.31226563 14.46664063 20.98828125 14.70703125 C31.72391159 17.902433 43.91103042 17.25483353 55 17 C55.85883789 16.98211426 56.71767578 16.96422852 57.60253906 16.94580078 C68.19517343 16.69654092 78.54378067 16.18258164 89 14.4375 C99.76396133 12.72017284 110.50332252 12.69359901 121.375 12.6875 C122.22658691 12.68418671 123.07817383 12.68087341 123.95556641 12.67745972 C140.15736505 12.64017247 157.75488041 12.92076297 172.91796875 19.21875 C175.17446774 20.09799076 175.17446774 20.09799076 178.2734375 20.9296875 C190.84462686 24.54028067 202.44086533 29.96100071 214 36 C214.66 36.33 215.32 36.66 216 37 C216 37.66 216 38.32 216 39 C216.57234375 39.11472656 217.1446875 39.22945313 217.734375 39.34765625 C220.21471656 40.06182356 222.06368697 41.07307872 224.25 42.4375 C224.95640625 42.86933594 225.6628125 43.30117188 226.390625 43.74609375 C226.92171875 44.15988281 227.4528125 44.57367188 228 45 C228 45.66 228 46.32 228 47 C228.57234375 47.268125 229.1446875 47.53625 229.734375 47.8125 C232.07884634 49.04132636 234.12404938 50.42522176 236.25 52 C237.30960937 52.7734375 237.30960937 52.7734375 238.390625 53.5625 C238.92171875 54.036875 239.4528125 54.51125 240 55 C240 55.66 240 56.32 240 57 C240.66 57 241.32 57 242 57 C242 57.66 242 58.32 242 59 C243.32 59.66 244.64 60.32 246 61 C246 61.66 246 62.32 246 63 C246.66 63 247.32 63 248 63 C248 63.66 248 64.32 248 65 C248.66 65 249.32 65 250 65 C250 65.66 250 66.32 250 67 C250.66 67 251.32 67 252 67 C253.32861328 68.43701172 253.32861328 68.43701172 254.8203125 70.4296875 C255.35527344 71.14253906 255.89023437 71.85539062 256.44140625 72.58984375 C256.99699219 73.34394531 257.55257813 74.09804688 258.125 74.875 C258.68832031 75.62136719 259.25164062 76.36773437 259.83203125 77.13671875 C264 82.73774213 264 82.73774213 264 85 C264.66 85 265.32 85 266 85 C275.17442305 97.15464965 286.75107905 118.60287942 286 134 C286.66 134 287.32 134 288 134 C288.08636719 133.40574219 288.17273438 132.81148437 288.26171875 132.19921875 C289.29506855 126.10340294 291.15487774 120.99036756 293.87890625 115.4453125 C294.8712086 113.28091783 295.51920685 111.32293318 296 109 C296.66 109 297.32 109 298 109 C298.11214844 108.29488281 298.22429687 107.58976562 298.33984375 106.86328125 C299.06314908 103.72610488 300.19457691 101.09872094 301.5625 98.1875 C302.01753906 97.21167969 302.47257812 96.23585938 302.94140625 95.23046875 C303.29074219 94.49441406 303.64007812 93.75835937 304 93 C304.66 93 305.32 93 306 93 C306.08765625 92.46117187 306.1753125 91.92234375 306.265625 91.3671875 C308.55099085 84.00052949 314.71896456 76.59168458 320 71 C320.66 71 321.32 71 322 71 C322.185625 70.319375 322.37125 69.63875 322.5625 68.9375 C325.66913681 62.58915521 332.29726901 57.10777193 338 53 C338.66 53 339.32 53 340 53 C340 52.34 340 51.68 340 51 C341.6796875 49.4921875 341.6796875 49.4921875 343.875 47.875 C344.59429688 47.33617187 345.31359375 46.79734375 346.0546875 46.2421875 C348 45 348 45 350 45 C350 44.34 350 43.68 350 43 C352.484375 41.30859375 352.484375 41.30859375 355.75 39.4375 C356.81734375 38.81746094 357.8846875 38.19742188 358.984375 37.55859375 C361.4179889 36.30080625 363.3319986 35.4727284 366 35 C366 34.34 366 33.68 366 33 C367.10794922 32.54560547 367.10794922 32.54560547 368.23828125 32.08203125 C373.40248631 29.94941798 378.51610121 27.77422717 383.5625 25.375 C387.99263707 23.33522466 392.36640687 21.92361726 397.1015625 20.7734375 C399.5394867 20.1228863 401.84377377 19.356578 404.21875 18.515625 C409.04452747 16.88359828 413.8406053 16.07378034 418.875 15.375 C420.53938554 15.13504258 422.2034645 14.89294631 423.8671875 14.6484375 C424.59019043 14.54708496 425.31319336 14.44573242 426.05810547 14.34130859 C428.20734253 14.01268016 428.20734253 14.01268016 431 13 C433.74572447 12.90286784 436.46529439 12.86004525 439.2109375 12.8671875 C440.01608795 12.86623077 440.8212384 12.86527405 441.65078735 12.86428833 C443.35378091 12.86360805 445.05677706 12.86545176 446.75976562 12.86962891 C449.35813273 12.87496536 451.95632588 12.86968601 454.5546875 12.86328125 C456.21093788 12.86394233 457.86718815 12.86522412 459.5234375 12.8671875 C460.29754974 12.86516327 461.07166199 12.86313904 461.86923218 12.86105347 C465.71740788 12.87765392 469.25264643 13.1367223 473 14 C476.40176502 14.24865694 479.79886087 14.43779716 483.20507812 14.60546875 C488.60430322 14.89951106 488.60430322 14.89951106 490.96020508 15.49780273 C493.12827838 16.03158212 495.12267942 16.20662688 497.3515625 16.31640625 C498.19396484 16.35846191 499.03636719 16.40051758 499.90429688 16.44384766 C501.25104492 16.50258057 501.25104492 16.50258057 502.625 16.5625 C503.55634766 16.6042334 504.48769531 16.6459668 505.44726562 16.68896484 C532.20199997 18.37734177 532.20199997 18.37734177 557.875 12.375 C561 11 561 11 564 11 C564 10.34 564 9.68 564 9 C565.64453125 7.37890625 565.64453125 7.37890625 567.8125 5.5625 C570.79240412 3.06191469 570.79240412 3.06191469 573.546875 0.32421875 C576.01265839 -1.92282579 578.77751356 -1.7738606 582 -2 C584.4375 -1.5625 584.4375 -1.5625 586 -1 C586 -0.34 586 0.32 586 1 C586.66 1 587.32 1 588 1 C592.32861452 6.81657576 594.13072886 12.05219347 595.4375 19.125 C596.31601017 23.76920153 597.30960424 28.3320722 598.625 32.875 C599.97918604 37.59349197 600.53514739 42.1190476 601 47 C601.33 47.66 601.66 48.32 602 49 C604.58416448 62.29837888 604.30666252 75.82150698 604.26074219 89.30883789 C604.25001211 93.05826959 604.26069355 96.80722334 604.2734375 100.55664062 C604.2824941 115.82986496 603.76276479 130.10647862 599.77734375 144.91796875 C598.90849813 148.36278882 598.26718736 151.81856536 597.625 155.3125 C596.33217132 161.96036114 594.41827432 168.12635908 592.1875 174.5 C591.14612355 177.56932007 590.28548512 180.60805952 589.5 183.75 C588.23619136 188.58263192 586.34049241 192.92347253 584.1953125 197.42578125 C583.13083088 199.71824331 582.22300814 201.99611401 581.375 204.375 C580.16977458 207.55241247 578.76058219 210.11904732 577 213 C576.30420546 215.19130534 576.30420546 215.19130534 576 217 C575.34 217 574.68 217 574 217 C573.88269531 217.56460938 573.76539063 218.12921875 573.64453125 218.7109375 C570.47012118 229.98490297 561.54124738 240.47006004 555 250 C554.53352051 250.69416016 554.06704102 251.38832031 553.58642578 252.10351562 C552.44232115 253.77208888 551.22745831 255.39175306 550 257 C549.34 257 548.68 257 548 257 C548 257.66 548 258.32 548 259 C547.34 259 546.68 259 546 259 C545.7525 259.55171875 545.505 260.1034375 545.25 260.671875 C543.75765526 263.45136707 541.96327477 265.7814707 540 268.25 C539.29875 269.14203125 538.5975 270.0340625 537.875 270.953125 C537.25625 271.62859375 536.6375 272.3040625 536 273 C535.34 273 534.68 273 534 273 C534 273.66 534 274.32 534 275 C533.34 275 532.68 275 532 275 C532 275.66 532 276.32 532 277 C531.34 277 530.68 277 530 277 C530 277.66 530 278.32 530 279 C529.34 279 528.68 279 528 279 C528 279.66 528 280.32 528 281 C525.8828125 282.9453125 525.8828125 282.9453125 523.125 285.125 C522.22007812 285.84945313 521.31515625 286.57390625 520.3828125 287.3203125 C518 289 518 289 516 289 C516 289.66 516 290.32 516 291 C513.73981361 292.67555151 511.48515259 294.22677697 509.125 295.75 C508.09270264 296.42434082 508.09270264 296.42434082 507.03955078 297.11230469 C505.03211659 298.4173953 503.01754337 299.71060827 501 301 C500.08734375 301.5878125 499.1746875 302.175625 498.234375 302.78125 C471.34375232 319.52110783 438.50830091 326.95335977 407.203125 321.53515625 C405 321 405 321 404 320 C402.96875 319.87625 401.9375 319.7525 400.875 319.625 C396.7974028 318.96732303 393.74756781 317.7094169 390 316 C388.73224757 315.53321249 387.4612511 315.07516103 386.1875 314.625 C383.10792663 313.50248375 380.31854081 312.12226878 377.4375 310.5625 C366.54405562 305.00633826 354.42809677 302.22757257 342.41796875 305.18359375 C334.63464374 307.81156617 328.0298431 312.45608045 321.77734375 317.6796875 C320 319 320 319 318 319 C318 319.66 318 320.32 318 321 C317.34 321 316.68 321 316 321 C316 321.66 316 322.32 316 323 C312.66062604 326.27156941 309.34475765 328.71553204 304.75 329.6875 C300.98040598 328.7451015 300.11513 327.21829842 298 324 C297.20703125 320.75 297.20703125 320.75 296.8125 317 C296.73845947 316.32227539 296.66441895 315.64455078 296.58813477 314.94628906 C295.88309737 307.98784261 295.58680616 300.99558679 295.34106445 294.0078125 C295.30972412 293.15445312 295.27838379 292.30109375 295.24609375 291.421875 C295.22216553 290.66487305 295.1982373 289.90787109 295.17358398 289.12792969 C294.99870696 286.98414889 294.53981315 285.07763767 294 283 C293.69815782 279.40723961 293.49274045 275.81395808 293.28125 272.21484375 C293.12415121 268.98521204 293.12415121 268.98521204 292 266 C291.84857231 264.31466594 291.7270716 262.62654193 291.625 260.9375 C291.22891814 256.1014683 290.19328327 251.86651384 288.6875 247.26953125 C288 245 288 245 287.5 241.4375 C286.97951558 237.85916962 286.00341428 234.77155637 284.81640625 231.37109375 C284.00407654 229.01183952 283.27197401 226.6420517 282.5625 224.25 C279.85022892 215.11916072 277.0581028 206.02140325 274 197 C273.34 197 272.68 197 272 197 C272.4640625 198.918125 272.4640625 198.918125 272.9375 200.875 C274.12557786 206.7233551 274.41136821 212.54255672 274.65795898 218.48974609 C274.70545288 219.59890381 274.70545288 219.59890381 274.75390625 220.73046875 C274.77783447 221.38426514 274.8017627 222.03806152 274.82641602 222.71166992 C274.97710319 225.13740855 274.97710319 225.13740855 275.50177002 228.05702209 C276.06712442 232.53122074 276.1476672 236.87272646 276.14526367 241.37597656 C276.15030159 242.74553497 276.15030159 242.74553497 276.15544128 244.14276123 C276.16489326 247.1420632 276.16689094 250.14130909 276.16796875 253.140625 C276.17118336 255.23093692 276.17454759 257.32124861 276.17805481 259.41156006 C276.18403023 263.78251671 276.18589614 268.15345362 276.18530273 272.52441406 C276.18520075 278.13234678 276.19889739 283.74015392 276.21607494 289.34805679 C276.22717174 293.65965358 276.22922272 297.97121967 276.22869301 302.28282928 C276.22987492 304.3513406 276.23430847 306.41985266 276.24202538 308.48834991 C276.25178617 311.37285821 276.24896366 314.25708912 276.24291992 317.14160156 C276.24853943 317.99878784 276.25415894 318.85597412 276.25994873 319.73913574 C276.22832258 325.65751613 276.22832258 325.65751613 274 329 C269.77450343 329.55808445 267.68657752 329.43824097 264.0625 327.125 C262 325 262 325 262 323 C261.236875 322.71125 260.47375 322.4225 259.6875 322.125 C257 321 257 321 254 319 C254 318.34 254 317.68 254 317 C253.34 317 252.68 317 252 317 C252 316.34 252 315.68 252 315 C251.4225 314.89300781 250.845 314.78601563 250.25 314.67578125 C247.68977472 313.9068247 246.13573388 312.78525546 244 311.1875 C235.19966087 305.21018292 225.58478018 302.65017323 215 304 C208.44249758 305.51383783 202.72904152 307.46788019 197 311 C195.72460844 311.54016584 194.43289555 312.04413599 193.125 312.5 C190.61927825 313.39722504 188.24557681 314.34023007 185.8125 315.4375 C159.90325199 326.62558437 130.29290976 325.15705011 103.98828125 315.9453125 C100.94729567 314.71534623 97.97848978 313.37468759 95 312 C93.55620253 311.36670179 92.11217445 310.7339292 90.66796875 310.1015625 C81.94592555 306.20467112 73.77558457 301.85395934 65.8125 296.5625 C65.02794434 296.04228271 64.24338867 295.52206543 63.43505859 294.98608398 C59.37604278 292.20792333 59.37604278 292.20792333 58 291 C58 290.34 58 289.68 58 289 C56.9171875 288.62875 56.9171875 288.62875 55.8125 288.25 C52.72393418 286.87730408 50.48988582 285.27646704 48 283 C48 282.34 48 281.68 48 281 C47.34 281 46.68 281 46 281 C46 280.34 46 279.68 46 279 C45.34 279 44.68 279 44 279 C44 278.34 44 277.68 44 277 C43.34 277 42.68 277 42 277 C42 276.34 42 275.68 42 275 C41.34 275 40.68 275 40 275 C38.41466298 273.28667246 36.90458785 271.50310953 35.4375 269.6875 C34.63183594 268.70136719 33.82617188 267.71523438 32.99609375 266.69921875 C31 264 31 264 30 261 C29.34 261 28.68 261 28 261 C26.125 258.76953125 26.125 258.76953125 24 255.8125 C23.29875 254.84957031 22.5975 253.88664063 21.875 252.89453125 C20.19039261 250.29391859 19.02231565 247.91253469 18 245 C17.34 245 16.68 245 16 245 C14.51953125 242.76171875 14.51953125 242.76171875 12.8125 239.6875 C10.51177405 235.61369393 8.14920188 231.64785122 5.5625 227.75 C-0.87128367 217.71618906 -5.86188785 206.94771888 -9.9765625 195.77734375 C-11.19969142 192.45808932 -12.58246073 189.24008976 -14 186 C-15.60140434 182.292812 -16.59366775 178.69741867 -17.4375 174.75 C-18.27875195 170.96647993 -19.16161422 167.32426554 -20.5 163.6875 C-22.16029979 158.96602248 -23.00466034 154.11618086 -23.87280273 149.20239258 C-24.63557798 144.88565341 -25.54347412 140.64057066 -26.5625 136.375 C-30.83033629 116.42848092 -32.51982782 93.09944233 -29 73 C-28.8895555 71.64655009 -28.80464641 70.29059415 -28.75390625 68.93359375 C-28.72248535 68.20736816 -28.69106445 67.48114258 -28.65869141 66.73291016 C-28.62694824 65.9754248 -28.59520508 65.21793945 -28.5625 64.4375 C-28.02099309 53.55210598 -26.44039764 43.22393324 -23.66015625 32.67578125 C-23.09347112 30.37886223 -22.67567881 28.15588567 -22.375 25.8125 C-22 23 -22 23 -21 22 C-20.87625 20.989375 -20.7525 19.97875 -20.625 18.9375 C-19.48814324 11.77530243 -16.86771417 3.69417134 -11 -1 C-7.26053417 -2.73618056 -3.4994239 -1.94332762 0 0 Z M101.46875 47.23046875 C99.78710684 48.87321316 99.78710684 48.87321316 100 51 C104.7520098 51.29093938 107.7816689 50.75745811 112.06640625 48.734375 C121.93546739 44.98612552 135.78638191 46.47361058 146 48 C146.495 48.495 146.495 48.495 147 49 C148.010625 49.12375 149.02125 49.2475 150.0625 49.375 C153.68987902 49.95077445 156.54127495 50.83741409 159.91015625 52.1953125 C162.02146956 53.00826678 164.13976838 53.62258017 166.3125 54.25 C171.31051081 55.86085714 175.39476766 58.63948352 179.71484375 61.57421875 C181.83388982 63.17644899 181.83388982 63.17644899 184 63 C184 63.66 184 64.32 184 65 C185.32 65 186.64 65 188 65 C187.55946315 60.15409462 185.25494123 56.51858133 182 53 C181.34 53 180.68 53 180 53 C180 52.34 180 51.68 180 51 C179.34 51 178.68 51 178 51 C178 50.34 178 49.68 178 49 C174.36676311 46.03764305 174.36676311 46.03764305 170 45 C170 44.34 170 43.68 170 43 C147.71352401 29.43431896 120.56326639 28.02579169 101.46875 47.23046875 Z M14 119 C14.59687434 122.34249629 15.73603877 124.46436342 18 127 C18.66 127 19.32 127 20 127 C20 127.66 20 128.32 20 129 C20.66 129 21.32 129 22 129 C22 129.66 22 130.32 22 131 C27.1222413 135.80210122 33.16420458 138.50010626 39.8125 140.5 C42.46477894 141.3567499 43.84719304 141.86198081 45.9375 143.75 C47.04527411 146.09587458 47.6966096 148.42504446 48.3359375 150.93359375 C49.69915286 155.1755992 51.94174985 159.06161749 54 163 C54.66937898 164.33197372 55.3370191 165.66483014 56 167 C56.66 167 57.32 167 58 167 C58.2475 167.53625 58.495 168.0725 58.75 168.625 C60.30652537 171.5823982 62.03435673 174.29724051 64 177 C64.66 177 65.32 177 66 177 C66 177.66 66 178.32 66 179 C66.66 179 67.32 179 68 179 C68 179.66 68 180.32 68 181 C68.66 181 69.32 181 70 181 C70 181.66 70 182.32 70 183 C70.66 183 71.32 183 72 183 C72.66 184.32 73.32 185.64 74 187 C74.66 187 75.32 187 76 187 C76 187.66 76 188.32 76 189 C78.30159194 191.1166733 80.9410546 192.83346277 83.5 194.625 C84.26521973 195.16189453 85.03043945 195.69878906 85.81884766 196.25195312 C106.2408459 210.26663859 128.84293721 217.77040566 153.58276367 217.41162109 C156.19554601 217.37488688 158.80690651 217.3706052 161.41992188 217.37109375 C173.95880556 217.31854328 185.66790048 215.97707709 197.82421875 212.7890625 C202.67788765 211.58310787 207.58168936 210.65457074 212.48828125 209.69140625 C219.74841796 208.83757725 219.74841796 208.83757725 226 206 C226.43147242 199.85151799 225.48063568 195.58673079 223 190 C222.54753906 188.93458984 222.54753906 188.93458984 222.0859375 187.84765625 C219.61071838 182.1224543 216.83041539 176.55643021 214 171 C213.34 171 212.68 171 212 171 C211.71125 170.236875 211.4225 169.47375 211.125 168.6875 C210.03730987 165.84970692 210.03730987 165.84970692 208 163 C207.34 163 206.68 163 206 163 C205.773125 162.44828125 205.54625 161.8965625 205.3125 161.328125 C203.61274074 158.31307583 201.45195184 156.18769631 199 153.75 C197.6696875 152.41195312 197.6696875 152.41195312 196.3125 151.046875 C194.26510897 148.77906927 194.26510897 148.77906927 192 149 C192 148.34 192 147.68 192 147 C188.36676311 144.03764305 188.36676311 144.03764305 184 143 C184 142.34 184 141.68 184 141 C182.906875 140.34 181.81375 139.68 180.6875 139 C180.07261719 138.62875 179.45773437 138.2575 178.82421875 137.875 C176.88638074 136.78376001 176.88638074 136.78376001 174 137 C174 136.34 174 135.68 174 135 C172.9275 134.608125 171.855 134.21625 170.75 133.8125 C167.23810652 132.50632207 163.81142553 131.05499581 160.375 129.5625 C139.32500443 120.79828801 113.89720783 118.69318857 91.82421875 125.1796875 C88.85815819 126.04119887 85.87761499 126.77693682 82.875 127.5 C79.36068585 128.34936749 76.09639316 129.33240163 72.75 130.6875 C66.20441619 132.99841776 58.83838983 132.41109395 52 132 C51.34 131.67 50.68 131.34 50 131 C48.44009075 130.8460053 46.87675979 130.72561089 45.3125 130.625 C40.68690917 130.20750398 37.24404036 128.92910926 33 127 C30.02183251 126.2147597 27.02377022 125.58281285 24 125 C24 124.34 24 123.68 24 123 C22.68 123 21.36 123 20 123 C20 122.34 20 121.68 20 121 C18.02 120.34 16.04 119.68 14 119 Z M552.4375 123.3125 C547.7855833 125.75614076 543.24839754 127.19253243 538.15234375 128.421875 C536.03501343 128.79849588 536.03501343 128.79849588 535 130 C521.27030153 134.44673449 506.30667242 132.72557469 493 128 C491.3964637 127.45647006 489.79237329 126.91456947 488.1875 126.375 C487.48625 126.1378125 486.785 125.900625 486.0625 125.65625 C465.92187832 119.24787037 438.78163715 119.41088532 419.0625 127.203125 C415.42384118 128.60897045 411.70745353 129.78992836 408 131 C408 131.66 408 132.32 408 133 C406.68 133 405.36 133 404 133 C404 133.66 404 134.32 404 135 C403.2884375 135.09667969 402.576875 135.19335938 401.84375 135.29296875 C385.34660192 139.39459485 367.86894388 160.73838268 358.9609375 174.125 C357.7719546 176.09381669 357.7719546 176.09381669 358 179 C357.34 179 356.68 179 356 179 C356 180.32 356 181.64 356 183 C355.34 183 354.68 183 354 183 C349.15459054 194.10373499 349.15459054 194.10373499 348 206 C350.00288748 208.00288748 353.69116234 207.9031568 356.4375 208.375 C361.18424237 209.21809536 365.78242642 210.12598398 370.375 211.625 C374.37095567 212.91702567 378.09799284 213.3754848 382.27563477 213.66821289 C385.03042721 214.00370558 387.40992229 214.68789523 390.05859375 215.50390625 C398.14924069 217.57052543 406.19030034 217.48596558 414.48852539 217.44604492 C417.16566872 217.43756912 419.840646 217.46632792 422.51757812 217.49804688 C436.49917208 217.55559359 449.16177293 215.75595736 462 210 C463.30797609 209.50861878 464.61965787 209.02677261 465.9375 208.5625 C473.25246524 205.84556633 479.89689538 201.9958264 486.5 197.875 C487.22703125 197.43285156 487.9540625 196.99070312 488.703125 196.53515625 C490.50548493 195.41376314 492.25820781 194.21333582 494 193 C494 192.34 494 191.68 494 191 C494.57975586 190.74476563 495.15951172 190.48953125 495.75683594 190.2265625 C498.23015312 188.87415223 499.89602109 187.36267476 501.890625 185.375 C502.59960938 184.66859375 503.30859375 183.9621875 504.0390625 183.234375 C504.76867187 182.49703125 505.49828125 181.7596875 506.25 181 C506.99507812 180.26265625 507.74015625 179.5253125 508.5078125 178.765625 C509.21164062 178.05921875 509.91546875 177.3528125 510.640625 176.625 C511.28547852 175.97789062 511.93033203 175.33078125 512.59472656 174.6640625 C514.21506609 173.10833644 514.21506609 173.10833644 514 171 C514.66 171 515.32 171 516 171 C520.90011774 164.32862758 524.64402355 157.33912463 527.11328125 149.4375 C528.12987665 146.64298226 529.23585961 144.40038775 531 142 C533.0234375 141.13671875 533.0234375 141.13671875 535.375 140.6875 C542.31537961 138.9216046 548.26337451 135.2350323 554 131 C554 130.34 554 129.68 554 129 C554.66 129 555.32 129 556 129 C556 128.34 556 127.68 556 127 C556.66 127 557.32 127 558 127 C558 126.34 558 125.68 558 125 C558.66 125 559.32 125 560 125 C560.33 123.68 560.66 122.36 561 121 C556.90975417 121 555.84994689 121.40670182 552.4375 123.3125 Z " fill="#0F1519" transform="translate(232,293)"/>
<path d="M0 0 C2.9518393 1.68234198 5.59786734 3.59162803 8 6 C8 6.66 8 7.32 8 8 C8.66 8 9.32 8 10 8 C10 8.66 10 9.32 10 10 C10.52335937 10.24234375 11.04671875 10.4846875 11.5859375 10.734375 C14.72609318 12.38067021 17.66015256 14.31277366 20.625 16.25 C31.74715383 23.71220441 31.74715383 23.71220441 43.87890625 29.22265625 C46.45597206 30.16710578 48.89376843 31.32724398 51.375 32.5 C56.48669748 34.85166248 61.57573239 36.53737006 67 38 C67.90878906 38.25652344 68.81757813 38.51304687 69.75390625 38.77734375 C72.49644162 39.54403305 75.24473022 40.28052302 78 41 C79.05574219 41.2784375 79.05574219 41.2784375 80.1328125 41.5625 C112.74276267 49.49800118 150.40130288 45.66013264 181 32 C183.22478783 31.11392544 185.45442461 30.23997593 187.6875 29.375 C188.78449219 28.94960938 189.88148438 28.52421875 191.01171875 28.0859375 C193.34512272 27.23798155 195.58024097 26.52987424 198 26 C198 25.34 198 24.68 198 24 C199.72718516 23.03810003 201.45684058 22.08063492 203.1875 21.125 C204.15042969 20.59132813 205.11335937 20.05765625 206.10546875 19.5078125 C208.69739518 18.1576322 211.26761098 17.02901671 214 16 C214 15.34 214 14.68 214 14 C215.43359375 12.7734375 215.43359375 12.7734375 217.4375 11.375 C220.75044071 9.01445671 223.59763597 6.47184055 226.5 3.625 C229.45726948 0.94401521 231.32658273 -0.5360238 235.375 -0.625 C239 0 239 0 242 2 C242 2.66 242 3.32 242 4 C242.66 4 243.32 4 244 4 C244.53449652 11.24539726 243.71607548 15.72912263 240 22 C239.34 22 238.68 22 238 22 C237.566875 23.1446875 237.566875 23.1446875 237.125 24.3125 C236 27 236 27 234 30 C233.34 30 232.68 30 232 30 C231.62875 31.0828125 231.62875 31.0828125 231.25 32.1875 C229.87730408 35.27606582 228.27646704 37.51011418 226 40 C225.34 40 224.68 40 224 40 C223.79375 40.680625 223.5875 41.36125 223.375 42.0625 C221.57104973 45.91639375 219.0989655 49.07787764 216 52 C215.34 52 214.68 52 214 52 C214 52.66 214 53.32 214 54 C212.6015625 55.41015625 212.6015625 55.41015625 210.625 57.0625 C207.30932165 59.87259619 204.07657981 62.74786763 200.875 65.6875 C191.65465017 74 191.65465017 74 188 74 C188 74.66 188 75.32 188 76 C185 78 185 78 182 78 C182 78.66 182 79.32 182 80 C181.40832031 80.32613281 180.81664062 80.65226563 180.20703125 80.98828125 C179.41683594 81.42527344 178.62664062 81.86226562 177.8125 82.3125 C177.03519531 82.74175781 176.25789062 83.17101562 175.45703125 83.61328125 C173.82133998 84.53644564 172.20947638 85.50317869 170.625 86.51171875 C167.56613264 88.2459873 164.5116226 89.35653114 161.1875 90.5 C157.32724475 91.83902604 153.48476736 93.17931115 149.6875 94.6875 C127.58847198 102.55325574 100.16119092 102.60447452 78.28515625 93.90625 C76.53305228 93.21139851 74.76720108 92.55112653 72.99609375 91.90625 C65.6107423 89.18578996 58.79801475 85.96437333 52 82 C52 81.34 52 80.68 52 80 C51.42765625 79.88527344 50.8553125 79.77054688 50.265625 79.65234375 C47.78528344 78.93817644 45.93631303 77.92692128 43.75 76.5625 C43.04359375 76.13066406 42.3371875 75.69882812 41.609375 75.25390625 C41.07828125 74.84011719 40.5471875 74.42632813 40 74 C40 73.34 40 72.68 40 72 C39.278125 71.7525 38.55625 71.505 37.8125 71.25 C34.72393418 69.87730408 32.48988582 68.27646704 30 66 C30 65.34 30 64.68 30 64 C29.34 64 28.68 64 28 64 C28 63.34 28 62.68 28 62 C27.46890625 61.79375 26.9378125 61.5875 26.390625 61.375 C22.99226564 59.42038808 20.48944072 56.77876283 17.75 54 C17.19570313 53.4534375 16.64140625 52.906875 16.0703125 52.34375 C12 48.2533867 12 48.2533867 12 46 C11.34 46 10.68 46 10 46 C8.26268707 44.03901186 6.6547956 42.07492656 5.0625 40 C4.58176025 39.37714111 4.10102051 38.75428223 3.60571289 38.11254883 C2.05629522 36.08530393 0.52488661 34.04575426 -1 32 C-1.5146582 31.31083496 -2.02931641 30.62166992 -2.55957031 29.91162109 C-4.08159706 27.85124607 -5.57624338 25.77378882 -7.0625 23.6875 C-7.52712646 23.05521484 -7.99175293 22.42292969 -8.47045898 21.77148438 C-11.63260503 17.23819423 -13.7204098 12.60006779 -14 7 C-10.61848228 1.11365434 -6.69372733 -0.87786588 0 0 Z " fill="#10181C" transform="translate(404,666)"/>
<path d="M0 0 C3.37503669 1.1858237 5.64722731 2.27573689 8 5 C4.62537285 4.45276317 2.91765 3.9451 0 2 C0 1.34 0 0.68 0 0 Z " fill="#202625" transform="translate(317,489)"/>
</svg>
